# xmcd CD database file generated by Grip 3.0.3
# 
# Track frame offsets:
#       182
#       13280
#       28027
#       44005
#       57495
#       75232
#       91395
#       108002
#       151450
#       166297
#       181545
#       195495
#       212670
#       231800
#       244695
#       257555
#       268967
#       285570
#       299570
# 
# Disc length: 4224 seconds
# 
# Revision: 2
# Processed by: cddbd v1.4PL0 Copyright (c) Steve Scherf et al.
# Submitted via: Grip 3.0.3
# 
DISCID=06107e13
DTITLE=Various Artist - Blues At Newport
DYEAR=1900
DGENRE=Blues
TTITLE0=Mississippi John Hurt - Candy Man
TTITLE1=Mississippi John Hurt - Coffee Blues
TTITLE2=Mississippi John Hurt - Stagolee
TTITLE3=Brownie McGhee and Sonny Terry - Long Gone
TTITLE4=Brownie McGhee and Sonny Terry - Key To The Highway
TTITLE5=Reverend Gary Davis - Samson And Delilah
TTITLE6=Reverend Gary Davis - I Won't Be Back No More
TTITLE7=Reverend Robert Wilkins - The Prodigal Son
TTITLE8=Reverend Robert Wilkins - (I Wish I Was In) Heaven Sitting Down
TTITLE9=Skip James - Devil Got My Woman
TTITLE10=Sleepy John Estes - Clean Up At Home
TTITLE11=Robert Pete Willimas - On My Way From Texas
TTITLE12=Robert Pete Williams - Bulldog Blues
TTITLE13=Jesse Fuller - I Double Double Do Love You
TTITLE14=Jesse Fuller - San Francisco Bay Blues
TTITLE15=John Hammond - Me And The Devil
TTITLE16=John Lee Hooker - Sometimes You Make Me Feel So Bad
TTITLE17=John Lee Hooker - Hobo Blues
TTITLE18=Dave Van Ronk - That Will Never Happen No More
EXTD=
EXTT0=
EXTT1=
EXTT2=
EXTT3=
EXTT4=
EXTT5=
EXTT6=
EXTT7=
EXTT8=
EXTT9=
EXTT10=
EXTT11=
EXTT12=
EXTT13=
EXTT14=
EXTT15=
EXTT16=
EXTT17=
EXTT18=
PLAYORDER=
